<svg width="20" height="21" viewBox="0 0 20 21" fill="none" xmlns="http://www.w3.org/2000/svg">
<path d="M15 15.5002V12.5835C15 11.8935 15.56 11.3335 16.25 11.3335V11.3335C16.94 11.3335 17.5 11.8935 17.5 12.5835V16.3335C17.5 17.7143 16.3808 18.8335 15 18.8335V18.8335C13.6192 18.8335 12.5 17.7143 12.5 16.3335V13.8335" stroke="#323232" stroke-width="1.5" stroke-linecap="round" stroke-linejoin="round"/>
<path d="M9.16659 13.8332H5.83325" stroke="#323232" stroke-width="1.5" stroke-linecap="round" stroke-linejoin="round"/>
<path d="M11.6666 10.5002H5.83325" stroke="#323232" stroke-width="1.5" stroke-linecap="round" stroke-linejoin="round"/>
<path d="M11.6666 7.16667H5.83325" stroke="#323232" stroke-width="1.5" stroke-linecap="round" stroke-linejoin="round"/>
<path d="M15 8V4.66667C15 3.74583 14.2542 3 13.3333 3H4.16667C3.24583 3 2.5 3.74583 2.5 4.66667V16.3333C2.5 17.2542 3.24583 18 4.16667 18H9.16667" stroke="#323232" stroke-width="1.5" stroke-linecap="round" stroke-linejoin="round"/>
</svg>
