<svg width="20" height="21" viewBox="0 0 20 21" fill="none" xmlns="http://www.w3.org/2000/svg">
<g id="Group">
<g id="Group_2">
<path id="Path" fill-rule="evenodd" clip-rule="evenodd" d="M15 18H5C3.61917 18 2.5 16.8808 2.5 15.5V5.5C2.5 4.11917 3.61917 3 5 3H15C16.3808 3 17.5 4.11917 17.5 5.5V15.5C17.5 16.8808 16.3808 18 15 18Z" stroke="#323232" stroke-width="1.5" stroke-linecap="round" stroke-linejoin="round"/>
<path id="Path_2" d="M8.32278 6.76063C8.89229 7.33015 8.89229 8.25352 8.32278 8.82302C7.75326 9.39254 6.8299 9.39254 6.26039 8.82302C5.69087 8.25351 5.69087 7.33014 6.26039 6.76063C6.8299 6.19112 7.75327 6.19112 8.32278 6.76063" stroke="#323232" stroke-width="1.5" stroke-linecap="round" stroke-linejoin="round"/>
<path id="Path_3" d="M17.4999 8.92433C17.1249 8.871 16.7441 8.8335 16.3541 8.8335C11.9241 8.8335 8.33325 12.4243 8.33325 16.8543C8.33325 17.2443 8.37075 17.6252 8.42409 18.0002" stroke="#323232" stroke-width="1.5" stroke-linecap="round" stroke-linejoin="round"/>
</g>
</g>
</svg>
