<svg width="24" height="24" viewBox="0 0 24 24" fill="none" xmlns="http://www.w3.org/2000/svg">
<g id="Group">
<g id="Group_2">
<path id="Path" d="M15.9641 6.03624C17.3451 4.65524 19.5831 4.65524 20.9641 6.03624V6.03624C22.3451 7.41724 22.3451 9.65524 20.9641 11.0362L15.0851 16.9152C13.7041 18.2962 11.4661 18.2962 10.0851 16.9152V16.9152C8.70407 15.5342 8.70407 13.2962 10.0851 11.9152L10.9641 11.0362" stroke="#323232" stroke-width="1.5" stroke-linecap="round" stroke-linejoin="round"/>
<path id="Path_2" d="M8.03599 18.9641C6.65499 20.3451 4.41699 20.3451 3.03599 18.9641V18.9641C1.65499 17.5831 1.65499 15.3451 3.03599 13.9641L8.91499 8.08507C10.296 6.70407 12.534 6.70407 13.915 8.08507V8.08507C15.296 9.46607 15.296 11.7041 13.915 13.0851L13 14.0001" stroke="#323232" stroke-width="1.5" stroke-linecap="round" stroke-linejoin="round"/>
</g>
</g>
</svg>
