<svg width="38" height="38" viewBox="0 0 38 38" fill="none" xmlns="http://www.w3.org/2000/svg">
<g id="Group, User.1">
<g id="Group 991">
<path id="Path 12090" d="M32.9241 15.0798C33.372 15.5278 33.6771 16.0985 33.8007 16.7198C33.9243 17.3412 33.8608 17.9852 33.6184 18.5705C33.376 19.1558 32.9654 19.656 32.4387 20.008C31.9119 20.3599 31.2926 20.5478 30.6591 20.5478C30.0256 20.5478 29.4064 20.3599 28.8796 20.008C28.3529 19.656 27.9423 19.1558 27.6999 18.5705C27.4574 17.9852 27.394 17.3412 27.5176 16.7198C27.6412 16.0985 27.9462 15.5278 28.3942 15.0798C28.6916 14.7824 29.0447 14.5464 29.4333 14.3854C29.822 14.2245 30.2385 14.1416 30.6591 14.1416C31.0798 14.1416 31.4963 14.2245 31.8849 14.3854C32.2736 14.5464 32.6267 14.7824 32.9241 15.0798" stroke="black" stroke-width="2" stroke-linecap="round" stroke-linejoin="round"/>
<path id="Path 12091" d="M22.4851 9.36086C23.1749 10.0506 23.6447 10.9294 23.835 11.8862C24.0254 12.8429 23.9277 13.8346 23.5545 14.7359C23.1812 15.6371 22.549 16.4074 21.7379 16.9494C20.9269 17.4914 19.9733 17.7807 18.9978 17.7807C18.0223 17.7807 17.0687 17.4914 16.2576 16.9494C15.4465 16.4074 14.8143 15.6371 14.4411 14.7359C14.0678 13.8346 13.9701 12.8429 14.1605 11.8862C14.3508 10.9294 14.8206 10.0506 15.5105 9.36086C16.4354 8.43605 17.6898 7.9165 18.9978 7.9165C20.3057 7.9165 21.5601 8.43605 22.4851 9.36086" stroke="black" stroke-width="2" stroke-linecap="round" stroke-linejoin="round"/>
<path id="Path 12092" d="M9.60696 15.0798C10.0549 15.5278 10.36 16.0985 10.4835 16.7198C10.6071 17.3412 10.5437 17.9852 10.3013 18.5705C10.0588 19.1558 9.64827 19.656 9.12153 20.008C8.59479 20.3599 7.97551 20.5478 7.342 20.5478C6.70849 20.5478 6.08922 20.3599 5.56247 20.008C5.03573 19.656 4.62518 19.1558 4.38275 18.5705C4.14031 17.9852 4.07687 17.3412 4.20046 16.7198C4.32404 16.0985 4.62909 15.5278 5.07704 15.0798C5.37448 14.7824 5.72759 14.5464 6.11621 14.3854C6.50483 14.2245 6.92136 14.1416 7.342 14.1416C7.76264 14.1416 8.17917 14.2245 8.56779 14.3854C8.95641 14.5464 9.30952 14.7824 9.60696 15.0798" stroke="black" stroke-width="2" stroke-linecap="round" stroke-linejoin="round"/>
<path id="Path 12093" d="M36.4166 30.0838V28.3421C36.4166 27.2923 35.9996 26.2855 35.2573 25.5432C34.5149 24.8008 33.5081 24.3838 32.4583 24.3838H31.1917" stroke="black" stroke-width="2" stroke-linecap="round" stroke-linejoin="round"/>
<path id="Path 12094" d="M1.58459 30.0838V28.3421C1.58459 27.2923 2.00163 26.2855 2.74396 25.5432C3.4863 24.8008 4.49311 24.3838 5.54293 24.3838H6.8096" stroke="black" stroke-width="2" stroke-linecap="round" stroke-linejoin="round"/>
<path id="Path 12095" d="M27.4549 30.0838V27.5505C27.4549 26.8227 27.3116 26.1021 27.0331 25.4298C26.7546 24.7574 26.3464 24.1465 25.8318 23.6319C25.3172 23.1173 24.7063 22.7091 24.034 22.4306C23.3616 22.1521 22.641 22.0088 21.9133 22.0088H16.0882C14.6184 22.0088 13.2089 22.5926 12.1696 23.6319C11.1304 24.6712 10.5465 26.0807 10.5465 27.5505V30.0838" stroke="black" stroke-width="2" stroke-linecap="round" stroke-linejoin="round"/>
</g>
</g>
</svg>
