<svg width="26" height="24" viewBox="0 0 26 24" fill="none" xmlns="http://www.w3.org/2000/svg">
<g id="Document.10">
<g id="Group 86">
<path id="Path 956" d="M20.7698 6.128L18.1425 3.585C17.7549 3.21027 17.2295 2.99985 16.6816 3H10.0105C9.46251 3 8.93693 3.21071 8.54942 3.58579C8.16191 3.96086 7.94421 4.46957 7.94421 5V15.714C7.94421 16.2444 8.16191 16.7531 8.54942 17.1282C8.93693 17.5033 9.46251 17.714 10.0105 17.714H19.309C19.857 17.714 20.3826 17.5033 20.7701 17.1282C21.1576 16.7531 21.3753 16.2444 21.3753 15.714V7.543C21.3754 7.28021 21.3219 7.01998 21.218 6.77719C21.1142 6.53439 20.9619 6.31379 20.7698 6.128Z" stroke="#5EC1DC" stroke-width="1.5" stroke-linecap="round" stroke-linejoin="round"/>
<path id="Path 957" d="M21.3753 8H17.2426C16.9686 8 16.7058 7.89464 16.5121 7.70711C16.3183 7.51957 16.2095 7.26522 16.2095 7V3" stroke="#5EC1DC" stroke-width="1.5" stroke-linecap="round" stroke-linejoin="round"/>
<path id="Path 958" d="M18.2758 17.714V19C18.2758 19.5304 18.0581 20.0391 17.6706 20.4142C17.2831 20.7893 16.7575 21 16.2095 21H6.91104C6.36302 21 5.83745 20.7893 5.44994 20.4142C5.06243 20.0391 4.84473 19.5304 4.84473 19V8C4.84473 7.46957 5.06243 6.96086 5.44994 6.58579C5.83745 6.21071 6.36302 6 6.91104 6H7.9442" stroke="#5EC1DC" stroke-width="1.5" stroke-linecap="round" stroke-linejoin="round"/>
</g>
</g>
</svg>
