<svg width="160" height="31" viewBox="0 0 160 31" fill="none" xmlns="http://www.w3.org/2000/svg">
<g id="Group 1171276031">
<g id="Group 1171276029">
<path id="Rectangle 159147" d="M3.04248 6.45361L6.08477 9.4959L3.04248 12.5382L0.000194555 9.4959L3.04248 6.45361Z" fill="black"/>
<path id="Rectangle 159148" d="M32.3351 6.45361L35.3774 9.4959L32.3351 12.5382L29.2928 9.4959L32.3351 6.45361Z" fill="black"/>
<path id="Rectangle 159149" d="M17.6884 9.14258L20.7306 12.1849L17.6884 15.2271L14.6461 12.1849L17.6884 9.14258Z" fill="black"/>
<path id="Rectangle 159150" d="M17.6884 15.2197L20.7306 18.262L17.6884 21.3043L14.6461 18.262L17.6884 15.2197Z" fill="black"/>
<path id="Union" fill-rule="evenodd" clip-rule="evenodd" d="M29.6276 15.2933L26.5854 12.251L23.6104 15.226L23.6041 15.2197L20.5618 18.2619L23.6041 21.3042L26.562 18.3463L29.52 21.3042L32.5623 18.2619L29.6106 15.3103L29.6276 15.2933Z" fill="black"/>
<path id="Union_2" fill-rule="evenodd" clip-rule="evenodd" d="M20.7546 24.2854L17.7123 21.2432L14.7373 24.2182L14.731 24.2118L11.6887 27.2541L14.731 30.2964L17.689 27.3385L20.6469 30.2964L23.6892 27.2541L20.7376 24.3025L20.7546 24.2854Z" fill="black"/>
<path id="Union_3" fill-rule="evenodd" clip-rule="evenodd" d="M20.647 6.09542L23.6049 9.05336L26.6472 6.01107L23.6956 3.05943L23.7126 3.04239L20.6703 0.000106142L17.7124 2.95799L14.7544 0L11.7794 2.97505L11.7731 2.96879L8.73083 6.01107L11.7731 9.05336L14.7311 6.09542L17.689 9.05336L17.689 9.05334L17.689 9.05336L20.647 6.09542Z" fill="black"/>
<path id="Union_4" fill-rule="evenodd" clip-rule="evenodd" d="M11.8808 15.2933L8.83854 12.251L5.86354 15.226L5.85723 15.2197L2.81494 18.2619L5.85723 21.3042L8.81519 18.3463L11.7731 21.3042L14.8154 18.2619L11.8638 15.3103L11.8808 15.2933Z" fill="black"/>
</g>
<g id="Group 1171276030">
<g id="Winlads">
<path id="Vector" d="M141.117 15.9621H143.872C147.983 15.9621 150.049 16.3794 150.049 19.5306C150.049 22.2434 147.983 23.746 143.872 23.746H141.305C137.194 23.746 135.128 22.6191 135.128 19.468H139.114C139.114 20.0731 139.468 20.574 140.846 20.574H144.101C145.52 20.574 146.084 20.3236 146.084 19.7392C146.084 19.1967 145.52 19.0089 144.101 19.0089H141.513C137.402 19.0089 135.336 18.3619 135.336 15.2108C135.336 12.4771 137.402 11.2041 141.513 11.2041H143.663C147.774 11.2041 149.84 12.1223 149.84 15.4821H145.854C145.854 14.8769 145.499 14.3761 144.122 14.3761H141.117C139.698 14.3761 139.343 14.7308 139.343 15.2108C139.343 15.6908 139.698 15.9621 141.117 15.9621Z" fill="black"/>
<path id="Vector_2" d="M129.589 12.8945V7.78174H133.659V23.433H129.589V22.0765C128.567 23.3078 127.002 23.7669 125.082 23.7669H124.706C120.846 23.7669 118.947 22.327 118.947 17.4855C118.947 12.6441 120.846 11.2041 124.706 11.2041H125.082C127.002 11.2041 128.567 11.6632 129.589 12.8945ZM125.562 20.3027H126.939C129.172 20.3027 129.589 19.4263 129.589 17.4855C129.589 15.5448 129.172 14.6683 126.939 14.6683H125.562C123.329 14.6683 122.912 15.5448 122.912 17.4855C122.912 19.4263 123.329 20.3027 125.562 20.3027Z" fill="black"/>
<path id="Vector_3" d="M108.846 11.2041H111.204C115.482 11.2041 117.485 12.6231 117.485 17.4646V23.4329H113.416V22.1182C112.727 23.1408 111.517 23.746 109.326 23.746H108.637C104.526 23.746 102.46 22.6191 102.46 19.5306C102.46 16.8594 104.526 16.3586 108.219 16.3586H113.353C113.144 15.0021 112.518 14.4804 110.765 14.4804H108.804C106.988 14.4804 106.654 15.19 106.654 15.6282H102.669C102.669 12.5188 104.714 11.2041 108.846 11.2041ZM108.595 20.6992H110.765C112.685 20.6992 113.27 20.0314 113.395 18.4663H108.595C106.926 18.4663 106.446 18.7584 106.446 19.5306C106.446 20.407 106.926 20.6992 108.595 20.6992Z" fill="black"/>
<path id="Vector_4" d="M100.991 23.433H96.9215V7.78174H100.991V23.433Z" fill="black"/>
<path id="Vector_5" d="M89.032 11.2251H89.4076C93.2682 11.2251 95.2507 12.665 95.2507 17.5065V23.4539H91.1814V17.5065C91.1814 15.5657 90.7849 14.6892 88.552 14.6892H87.1747C84.9418 14.6892 84.5244 15.5657 84.5244 17.5065V23.4331H80.4551V11.5173H84.107V13.5206C85.067 11.8094 86.8199 11.2251 89.032 11.2251Z" fill="black"/>
<path id="Vector_6" d="M77.0454 10.453H76.4193C74.9377 10.453 74.2908 9.93132 74.2908 8.47054C74.2908 7.05149 74.9377 6.52979 76.4193 6.52979H77.0454C78.527 6.52979 79.1948 7.05149 79.1948 8.47054C79.1948 9.93132 78.527 10.453 77.0454 10.453ZM78.7775 23.4331H74.7081V11.5173H78.7775V23.4331Z" fill="black"/>
<path id="Vector_7" d="M66.3666 19.0507L69.2881 8.8252H73.8792L69.4968 23.433H63.8624L61.1495 13.9379L58.4366 23.433H52.8021L48.4198 8.8252H53.0108L55.9324 19.0507L58.854 8.8252H63.445L66.3666 19.0507Z" fill="black"/>
</g>
<g id="TM">
<path id="Vector_8" d="M160 6.7998V10.4518H159.27L159.301 7.21195L157.96 10.4518H156.953L155.612 7.20152L155.644 10.4518H154.913V6.7998H156.129L157.475 10.0605L158.826 6.7998H160Z" fill="black"/>
<path id="Vector_9" d="M151.296 6.7998H154.687V7.39977H153.367V10.4518H152.616V7.39977H151.296V6.7998Z" fill="black"/>
</g>
</g>
</g>
</svg>
