<svg width="18" height="30" viewBox="0 0 18 30" fill="none" xmlns="http://www.w3.org/2000/svg">
<g id="Union">
<path d="M10.9038 0.293111C11.5223 -0.180643 12.4115 -0.068191 12.8899 0.544281C19.7128 9.27953 19.6933 20.707 12.8917 29.4534C12.4146 30.0668 11.5257 30.1812 10.9062 29.7087C10.2867 29.2363 10.1713 28.3559 10.6483 27.7425C16.6687 20.0007 16.6811 9.9811 10.6502 2.2599C10.1718 1.64743 10.2854 0.766867 10.9038 0.293111Z" fill="black"/>
<path d="M5.25338 3.90971C5.87144 3.43544 6.76072 3.54715 7.23963 4.15922C12.3577 10.7003 12.3369 19.2856 7.24215 25.8361C6.76503 26.4495 5.87608 26.5638 5.25663 26.0913C4.63719 25.6188 4.52181 24.7384 4.99893 24.125C9.31334 18.5779 9.32443 11.4016 5.00144 5.87671C4.52252 5.26464 4.63532 4.38399 5.25338 3.90971Z" fill="black"/>
<path d="M2.53775 9.13831C2.06087 8.52469 1.17197 8.4101 0.552338 8.88236C-0.0672912 9.35463 -0.183004 10.2349 0.293883 10.8485C2.24841 13.3635 2.26023 16.5934 0.294534 19.1188C-0.182818 19.732 -0.0677746 20.6124 0.551496 21.0851C1.17076 21.5578 2.05975 21.4439 2.53711 20.8306C5.29194 17.2915 5.27187 12.6564 2.53775 9.13831Z" fill="black"/>
</g>
</svg>
