<svg width="24" height="24" viewBox="0 0 24 24" fill="none" xmlns="http://www.w3.org/2000/svg">
<g id="Bell, Notifications">
<path id="Path 8438" d="M5.99444 13.0001V9.00014C5.99444 7.40725 6.62722 5.8796 7.75356 4.75326C8.8799 3.62691 10.4076 2.99414 12.0004 2.99414C13.5933 2.99414 15.121 3.62691 16.2473 4.75326C17.3737 5.8796 18.0064 7.40725 18.0064 9.00014V13.0001C18.0067 13.4871 18.1161 13.9678 18.3267 14.4069C18.5374 14.846 18.8438 15.2322 19.2234 15.5371L19.5324 15.7851C19.7332 15.9467 19.8789 16.1665 19.9494 16.4143C20.0199 16.6621 20.0119 16.9257 19.9263 17.1687C19.8407 17.4117 19.6819 17.6222 19.4716 17.7711C19.2614 17.92 19.0101 18 18.7524 18.0001H5.24844C4.9908 18 4.73953 17.92 4.52928 17.7711C4.31903 17.6222 4.16017 17.4117 4.07459 17.1687C3.98901 16.9257 3.98094 16.6621 4.05148 16.4143C4.12202 16.1665 4.26771 15.9467 4.46844 15.7851L4.77744 15.5371C5.15732 15.2324 5.4639 14.8462 5.67454 14.4071C5.88518 13.968 5.9945 13.4872 5.99444 13.0001Z" fill="black"/>
<path id="Path 8439" d="M10.5 21H13.5" stroke="black" stroke-width="1.5" stroke-linecap="round" stroke-linejoin="round"/>
</g>
</svg>
