<svg width="200" height="51" viewBox="0 0 200 51" fill="none" xmlns="http://www.w3.org/2000/svg">
<path id="Vector" d="M180.234 7.29352L180.215 7.29951L180.195 7.30574C175.163 8.90702 172.487 9.68364 170.769 9.97093C169.966 10.1052 169.521 10.1038 169.241 10.0741C168.986 10.047 168.725 9.98232 168.288 9.80144C166.078 8.86996 163.935 8.47197 161.309 8.81211C158.884 9.12618 156.16 10.0597 152.74 11.4464L152.726 11.4519L152.713 11.4576C149.482 12.7992 146.474 13.8673 144.179 14.5336C143.725 14.6655 143.309 14.7784 142.934 14.8732C142.665 13.6904 142.162 12.5962 141.641 11.7499C141.234 11.0882 140.707 10.397 140.061 9.8249C139.512 9.33764 138.385 8.49712 136.827 8.48687C136.243 8.48303 135.741 8.62586 135.594 8.66772L135.582 8.67115C135.341 8.73926 135.097 8.82329 134.874 8.90494C134.422 9.07056 133.878 9.29394 133.288 9.54885C132.097 10.063 130.562 10.7725 128.886 11.578C125.534 13.1895 121.499 15.2425 118.315 17.0067L118.315 17.007C115.783 18.4103 113.038 19.65 110.808 20.4692C110.219 20.6855 109.686 20.8651 109.218 21.0082C108.86 19.2623 108.197 17.4769 106.775 16.1226C105.053 14.4827 102.872 14.0769 100.875 14.0638C94.186 14.0198 85.1228 17.195 72.2879 23.4924L72.2764 23.4981C71.9249 23.6722 71.5884 23.8379 71.2667 23.9954C71.7525 20.1933 70.947 16.3196 67.6567 14.0722L67.6355 14.0577L67.6141 14.0436C65.9751 12.9589 63.9683 12.6129 62.1356 12.5486C60.2318 12.4818 58.0886 12.7075 55.8431 13.1245C51.3437 13.9601 46.0093 15.6452 40.5436 17.8463C29.658 22.2301 17.6427 28.9096 10.0581 35.7944L10.0454 35.8059L10.0328 35.8176C6.23694 39.3319 3.95674 42.51 4.08842 47.018L4.08929 47.0477L4.09065 47.0772L4.18338 49.0861L11.1373 49.4679L11.46 47.4136C11.5452 46.9742 11.6718 46.4667 11.8089 46.0263C11.8795 45.7993 11.9434 45.621 11.9936 45.4975C12.0067 45.4654 12.017 45.4415 12.0244 45.4248L12.0402 45.4004L12.0964 45.2995C12.0963 45.2997 12.1179 45.2616 12.1757 45.1834C12.2325 45.1067 12.3137 45.0056 12.4252 44.8796C12.6509 44.6247 12.9633 44.3105 13.3747 43.9383C14.1999 43.1918 15.3163 42.3085 16.6957 41.3183C19.4496 39.3415 23.0717 37.0672 27.0983 34.7743C35.182 30.1709 44.588 25.6663 51.4468 23.4101L51.4521 23.4083C54.4707 22.4099 57.4621 21.749 59.7956 21.4736C60.6752 21.3698 61.4064 21.3274 61.9768 21.3301C61.9798 21.5579 61.9739 21.8189 61.9555 22.112C61.8604 23.6248 61.4657 25.4706 60.8388 27.025C60.0685 28.8358 59.4249 30.7968 59.517 32.5416C59.5675 33.497 59.8614 34.7852 60.8992 35.8305C61.9677 36.9066 63.299 37.2001 64.331 37.2069C64.8526 37.2103 65.2849 37.0947 65.398 37.0645L65.4078 37.0618C65.5963 37.0117 65.7753 36.9528 65.9219 36.9017C66.2203 36.7976 66.5641 36.662 66.9223 36.5137C67.6481 36.2132 68.5943 35.7933 69.6806 35.2938C71.8615 34.2908 74.7129 32.9182 77.7135 31.4193L77.7216 31.4153L77.7296 31.4113C89.8119 25.2984 94.7673 23.594 99.1821 23.2617C99.4868 23.2407 99.753 23.2229 99.9874 23.2084C100.036 23.5113 100.066 23.7876 100.065 23.9533C100.058 24.9583 100.315 25.9218 100.619 26.677C100.92 27.4273 101.403 28.311 102.119 29.0343C104.664 31.607 108.263 31.4328 111.371 30.5908C114.619 29.7111 118.61 27.7842 123.357 25.0008C127.473 22.5896 130.817 20.7591 133.208 19.589C133.354 19.5173 133.496 19.4486 133.633 19.3829C133.855 20.6577 134.345 21.9304 135.299 23.0113C136.811 24.7261 138.897 25.3019 140.864 25.3433C142.786 25.3837 144.952 24.9343 147.264 24.2036C149.611 23.4618 152.318 22.3611 155.389 20.9355C159.435 19.1006 161.187 18.3573 162.287 18.1024C162.706 18.0055 162.878 18.0207 162.985 18.0356C163.161 18.0603 163.437 18.1313 164.121 18.3969L164.13 18.4007L164.14 18.4044C168.763 20.1686 173.879 19.3372 179.91 16.8765L179.922 16.8717L179.934 16.8669C188.895 13.1351 193.652 11.5023 195.982 11.1234L198.792 10.6663L198.253 3.71179L195.87 3.69611C194.316 3.68588 192.039 3.90486 190.589 4.22364L190.812 5.23447L190.589 4.22364C189.437 4.47699 185.803 5.58937 182.112 6.7193C181.484 6.91158 180.854 7.10437 180.234 7.29352ZM109.533 22.4991C109.533 22.4996 109.532 22.4977 109.53 22.4933C109.532 22.4968 109.533 22.4988 109.533 22.4991ZM107.522 21.4097C107.465 21.4138 107.471 21.4089 107.527 21.4093C107.525 21.4095 107.524 21.4096 107.522 21.4097ZM140.941 15.2509C140.89 15.2519 140.898 15.2479 140.951 15.2506C140.948 15.2507 140.944 15.2508 140.941 15.2509ZM62.9982 21.4121C63.0164 21.417 63.0135 21.4174 62.9935 21.4109C62.9952 21.4113 62.9968 21.4117 62.9982 21.4121ZM61.883 20.375C61.8667 20.3349 61.8607 20.3114 61.8618 20.3097C61.8629 20.308 61.8711 20.328 61.883 20.375Z" fill="#1BB1E1" stroke="white" stroke-width="7"/>
</svg>
