<svg width="353" height="57" viewBox="0 0 353 57" fill="none" xmlns="http://www.w3.org/2000/svg">
<line x1="-0.343393" y1="-64.2774" x2="-98.1002" y2="136.154" stroke="black" stroke-opacity="0.03" stroke-width="2"/>
<line x1="6.65661" y1="-64.2774" x2="-91.1002" y2="136.154" stroke="black" stroke-opacity="0.03" stroke-width="2"/>
<line x1="13.6566" y1="-64.2774" x2="-84.1002" y2="136.154" stroke="black" stroke-opacity="0.03" stroke-width="2"/>
<line x1="20.6566" y1="-64.2774" x2="-77.1002" y2="136.154" stroke="black" stroke-opacity="0.03" stroke-width="2"/>
<line x1="27.6566" y1="-64.2774" x2="-70.1002" y2="136.154" stroke="black" stroke-opacity="0.03" stroke-width="2"/>
<line x1="34.6566" y1="-64.2774" x2="-63.1002" y2="136.154" stroke="black" stroke-opacity="0.03" stroke-width="2"/>
<line x1="41.6566" y1="-64.2774" x2="-56.1002" y2="136.154" stroke="black" stroke-opacity="0.03" stroke-width="2"/>
<line x1="48.6566" y1="-64.2774" x2="-49.1002" y2="136.154" stroke="black" stroke-opacity="0.03" stroke-width="2"/>
<line x1="55.6566" y1="-64.2774" x2="-42.1002" y2="136.154" stroke="black" stroke-opacity="0.03" stroke-width="2"/>
<line x1="62.6566" y1="-64.2774" x2="-35.1002" y2="136.154" stroke="black" stroke-opacity="0.03" stroke-width="2"/>
<line x1="69.6566" y1="-64.2774" x2="-28.1002" y2="136.154" stroke="black" stroke-opacity="0.03" stroke-width="2"/>
<line x1="76.6566" y1="-64.2774" x2="-21.1002" y2="136.154" stroke="black" stroke-opacity="0.03" stroke-width="2"/>
<line x1="83.6566" y1="-64.2774" x2="-14.1002" y2="136.154" stroke="black" stroke-opacity="0.03" stroke-width="2"/>
<line x1="90.6566" y1="-64.2774" x2="-7.10016" y2="136.154" stroke="black" stroke-opacity="0.03" stroke-width="2"/>
<line x1="97.6566" y1="-64.2774" x2="-0.10016" y2="136.154" stroke="black" stroke-opacity="0.03" stroke-width="2"/>
<line x1="104.657" y1="-64.2774" x2="6.89984" y2="136.154" stroke="black" stroke-opacity="0.03" stroke-width="2"/>
<line x1="111.657" y1="-64.2774" x2="13.8998" y2="136.154" stroke="black" stroke-opacity="0.03" stroke-width="2"/>
<line x1="118.657" y1="-64.2774" x2="20.8998" y2="136.154" stroke="black" stroke-opacity="0.03" stroke-width="2"/>
<line x1="125.657" y1="-64.2774" x2="27.8998" y2="136.154" stroke="black" stroke-opacity="0.03" stroke-width="2"/>
<line x1="132.657" y1="-64.2774" x2="34.8998" y2="136.154" stroke="black" stroke-opacity="0.03" stroke-width="2"/>
<line x1="139.657" y1="-64.2774" x2="41.8998" y2="136.154" stroke="black" stroke-opacity="0.03" stroke-width="2"/>
<line x1="146.657" y1="-64.2774" x2="48.8998" y2="136.154" stroke="black" stroke-opacity="0.03" stroke-width="2"/>
<line x1="153.657" y1="-64.2774" x2="55.8998" y2="136.154" stroke="black" stroke-opacity="0.03" stroke-width="2"/>
<line x1="160.657" y1="-64.2774" x2="62.8998" y2="136.154" stroke="black" stroke-opacity="0.03" stroke-width="2"/>
<line x1="167.657" y1="-64.2774" x2="69.8998" y2="136.154" stroke="black" stroke-opacity="0.03" stroke-width="2"/>
<line x1="174.657" y1="-64.2774" x2="76.8998" y2="136.154" stroke="black" stroke-opacity="0.03" stroke-width="2"/>
<line x1="181.657" y1="-64.2774" x2="83.8998" y2="136.154" stroke="black" stroke-opacity="0.03" stroke-width="2"/>
<line x1="188.657" y1="-64.2774" x2="90.8998" y2="136.154" stroke="black" stroke-opacity="0.03" stroke-width="2"/>
<line x1="195.657" y1="-64.2774" x2="97.8998" y2="136.154" stroke="black" stroke-opacity="0.03" stroke-width="2"/>
<line x1="202.657" y1="-64.2774" x2="104.9" y2="136.154" stroke="black" stroke-opacity="0.03" stroke-width="2"/>
<line x1="209.657" y1="-64.2774" x2="111.9" y2="136.154" stroke="black" stroke-opacity="0.03" stroke-width="2"/>
<line x1="216.657" y1="-64.2774" x2="118.9" y2="136.154" stroke="black" stroke-opacity="0.03" stroke-width="2"/>
<line x1="223.657" y1="-64.2774" x2="125.9" y2="136.154" stroke="black" stroke-opacity="0.03" stroke-width="2"/>
<line x1="230.657" y1="-64.2774" x2="132.9" y2="136.154" stroke="black" stroke-opacity="0.03" stroke-width="2"/>
<line x1="237.657" y1="-64.2774" x2="139.9" y2="136.154" stroke="black" stroke-opacity="0.03" stroke-width="2"/>
<line x1="244.657" y1="-64.2774" x2="146.9" y2="136.154" stroke="black" stroke-opacity="0.03" stroke-width="2"/>
<line x1="251.657" y1="-64.2774" x2="153.9" y2="136.154" stroke="black" stroke-opacity="0.03" stroke-width="2"/>
<line x1="258.657" y1="-64.2774" x2="160.9" y2="136.154" stroke="black" stroke-opacity="0.03" stroke-width="2"/>
<line x1="265.657" y1="-64.2774" x2="167.9" y2="136.154" stroke="black" stroke-opacity="0.03" stroke-width="2"/>
<line x1="272.657" y1="-64.2774" x2="174.9" y2="136.154" stroke="black" stroke-opacity="0.03" stroke-width="2"/>
<line x1="279.657" y1="-64.2774" x2="181.9" y2="136.154" stroke="black" stroke-opacity="0.03" stroke-width="2"/>
<line x1="286.657" y1="-64.2774" x2="188.9" y2="136.154" stroke="black" stroke-opacity="0.03" stroke-width="2"/>
<line x1="293.657" y1="-64.2774" x2="195.9" y2="136.154" stroke="black" stroke-opacity="0.03" stroke-width="2"/>
<line x1="300.657" y1="-64.2774" x2="202.9" y2="136.154" stroke="black" stroke-opacity="0.03" stroke-width="2"/>
<line x1="307.657" y1="-64.2774" x2="209.9" y2="136.154" stroke="black" stroke-opacity="0.03" stroke-width="2"/>
<line x1="314.657" y1="-64.2774" x2="216.9" y2="136.154" stroke="black" stroke-opacity="0.03" stroke-width="2"/>
<line x1="321.657" y1="-64.2774" x2="223.9" y2="136.154" stroke="black" stroke-opacity="0.03" stroke-width="2"/>
<line x1="328.657" y1="-64.2774" x2="230.9" y2="136.154" stroke="black" stroke-opacity="0.03" stroke-width="2"/>
<line x1="335.657" y1="-64.2774" x2="237.9" y2="136.154" stroke="black" stroke-opacity="0.03" stroke-width="2"/>
<line x1="342.657" y1="-64.2774" x2="244.9" y2="136.154" stroke="black" stroke-opacity="0.03" stroke-width="2"/>
<line x1="349.657" y1="-64.2774" x2="251.9" y2="136.154" stroke="black" stroke-opacity="0.03" stroke-width="2"/>
<line x1="356.657" y1="-64.2774" x2="258.9" y2="136.154" stroke="black" stroke-opacity="0.03" stroke-width="2"/>
<line x1="363.657" y1="-64.2774" x2="265.9" y2="136.154" stroke="black" stroke-opacity="0.03" stroke-width="2"/>
<line x1="370.657" y1="-64.2774" x2="272.9" y2="136.154" stroke="black" stroke-opacity="0.03" stroke-width="2"/>
<line x1="377.657" y1="-64.2774" x2="279.9" y2="136.154" stroke="black" stroke-opacity="0.03" stroke-width="2"/>
<line x1="384.657" y1="-64.2774" x2="286.9" y2="136.154" stroke="black" stroke-opacity="0.03" stroke-width="2"/>
<line x1="391.657" y1="-64.2774" x2="293.9" y2="136.154" stroke="black" stroke-opacity="0.03" stroke-width="2"/>
<line x1="398.657" y1="-64.2774" x2="300.9" y2="136.154" stroke="black" stroke-opacity="0.03" stroke-width="2"/>
<line x1="405.657" y1="-64.2774" x2="307.9" y2="136.154" stroke="black" stroke-opacity="0.03" stroke-width="2"/>
<line x1="412.657" y1="-64.2774" x2="314.9" y2="136.154" stroke="black" stroke-opacity="0.03" stroke-width="2"/>
<line x1="419.657" y1="-64.2774" x2="321.9" y2="136.154" stroke="black" stroke-opacity="0.03" stroke-width="2"/>
<line x1="426.657" y1="-64.2774" x2="328.9" y2="136.154" stroke="black" stroke-opacity="0.03" stroke-width="2"/>
<line x1="433.657" y1="-64.2774" x2="335.9" y2="136.154" stroke="black" stroke-opacity="0.03" stroke-width="2"/>
<line x1="440.657" y1="-64.2774" x2="342.9" y2="136.154" stroke="black" stroke-opacity="0.03" stroke-width="2"/>
<line x1="447.657" y1="-64.2774" x2="349.9" y2="136.154" stroke="black" stroke-opacity="0.03" stroke-width="2"/>
</svg>
