<svg width="339" height="290" viewBox="0 0 339 290" fill="none" xmlns="http://www.w3.org/2000/svg">
<path d="M29.0986 61.728L58.1973 90.8266L29.0986 119.925L1.48175e-05 90.8266L29.0986 61.728Z" fill="black" fill-opacity="0.13"/>
<path d="M309.279 61.7271L338.378 90.8257L309.279 119.924L280.181 90.8257L309.279 61.7271Z" fill="black" fill-opacity="0.13"/>
<path d="M169.173 87.4482L198.271 116.547L169.173 145.645L140.074 116.547L169.173 87.4482Z" fill="black" fill-opacity="0.13"/>
<path d="M169.173 145.574L198.271 174.673L169.173 203.771L140.074 174.673L169.173 145.574Z" fill="black" fill-opacity="0.13"/>
<path fill-rule="evenodd" clip-rule="evenodd" d="M283.385 146.278L254.286 117.18L225.831 145.635L225.77 145.574L196.672 174.673L225.77 203.772L254.063 175.479L282.355 203.772L311.453 174.673L283.222 146.441L283.385 146.278Z" fill="black" fill-opacity="0.13"/>
<path fill-rule="evenodd" clip-rule="evenodd" d="M198.495 232.286L169.396 203.188L140.941 231.643L140.881 231.582L111.782 260.681L140.881 289.779L169.173 261.487L197.465 289.779L226.564 260.681L198.332 232.449L198.495 232.286Z" fill="black" fill-opacity="0.13"/>
<path fill-rule="evenodd" clip-rule="evenodd" d="M197.476 58.301L225.767 86.5929L254.866 57.4942L226.634 29.2626L226.797 29.0996L197.699 0.00101522L169.407 28.2924L141.115 0L112.659 28.4555L112.6 28.3956L83.501 57.4942L112.6 86.5929L140.891 58.301L169.183 86.5929L169.184 86.5927L169.184 86.5929L197.476 58.301Z" fill="black" fill-opacity="0.13"/>
<path fill-rule="evenodd" clip-rule="evenodd" d="M113.645 146.278L84.5466 117.18L56.0916 145.635L56.0312 145.574L26.9326 174.673L56.0312 203.772L84.3233 175.479L112.615 203.772L141.714 174.673L113.482 146.441L113.645 146.278Z" fill="black" fill-opacity="0.13"/>
</svg>
