<svg width="203" height="162" viewBox="0 0 203 162" fill="none" xmlns="http://www.w3.org/2000/svg">
<path d="M25.9062 2.95898L51.8138 28.8665L25.9062 54.774L-0.00125684 28.8665L25.9062 2.95898Z" fill="black" fill-opacity="0.13"/>
<path d="M150.617 25.8579L176.525 51.7654L150.617 77.6729L124.71 51.7654L150.617 25.8579Z" fill="black" fill-opacity="0.13"/>
<path d="M150.617 77.6094L176.525 103.517L150.617 129.424L124.71 103.517L150.617 77.6094Z" fill="black" fill-opacity="0.13"/>
<path fill-rule="evenodd" clip-rule="evenodd" d="M252.305 78.2366L226.397 52.3291L201.063 77.6636L201.009 77.6098L175.102 103.517L201.009 129.425L226.198 104.235L251.388 129.425L277.295 103.517L252.16 78.3817L252.305 78.2366Z" fill="black" fill-opacity="0.13"/>
<path fill-rule="evenodd" clip-rule="evenodd" d="M176.727 154.812L150.819 128.904L125.485 154.239L125.431 154.185L99.5234 180.092L125.431 206L150.62 180.811L175.81 206L201.717 180.092L176.582 154.957L176.727 154.812Z" fill="black"/>
<path fill-rule="evenodd" clip-rule="evenodd" d="M175.815 -0.0926247L201.005 25.0966L226.912 -0.810894L201.777 -25.9465L201.922 -26.0916L176.014 -51.9991L150.825 -26.8103L125.636 -52L100.301 -26.6651L100.247 -26.7184L74.3398 -0.810894L100.247 25.0966L125.437 -0.0926247L150.626 25.0966L150.626 25.0965L150.626 25.0966L175.815 -0.0926247Z" fill="black" fill-opacity="0.13"/>
<path fill-rule="evenodd" clip-rule="evenodd" d="M101.18 78.2366L75.2723 52.3291L49.9379 77.6636L49.8841 77.6098L23.9766 103.517L49.8841 129.425L75.0735 104.235L100.263 129.425L126.17 103.517L101.035 78.3817L101.18 78.2366Z" fill="black" fill-opacity="0.13"/>
</svg>
