<svg width="302" height="122" viewBox="0 0 302 122" fill="none" xmlns="http://www.w3.org/2000/svg">
<path d="M150.617 -6.39062L176.525 19.5169L150.617 45.4244L124.71 19.5169L150.617 -6.39062Z" fill="#7B7B7B" fill-opacity="0.07"/>
<path fill-rule="evenodd" clip-rule="evenodd" d="M252.304 -5.76339L226.396 -31.6709L201.062 -6.33643L201.008 -6.39021L175.101 19.5173L201.008 45.4248L226.197 20.2354L251.387 45.4248L277.294 19.5173L252.159 -5.61832L252.304 -5.76339Z" fill="#7B7B7B" fill-opacity="0.07"/>
<path fill-rule="evenodd" clip-rule="evenodd" d="M176.726 70.8118L150.818 44.9043L125.484 70.2388L125.43 70.185L99.5225 96.0925L125.43 122L150.619 96.8106L175.809 122L201.716 96.0925L176.581 70.9569L176.726 70.8118Z" fill="#7B7B7B" fill-opacity="0.07"/>
<path fill-rule="evenodd" clip-rule="evenodd" d="M101.182 -5.76339L75.2743 -31.6709L49.9398 -6.33643L49.886 -6.39021L23.9785 19.5173L49.886 45.4248L75.0754 20.2354L100.265 45.4248L126.172 19.5173L101.037 -5.61832L101.182 -5.76339Z" fill="#7B7B7B" fill-opacity="0.07"/>
</svg>
