<svg width="24" height="24" viewBox="0 0 24 24" fill="none" xmlns="http://www.w3.org/2000/svg">
<g id="Group">
<g id="Group_2">
<path id="Path" d="M5 16H6" stroke="white" stroke-width="1.5" stroke-linecap="round" stroke-linejoin="round"/>
<path id="Path_2" d="M18 8H19" stroke="white" stroke-width="1.5" stroke-linecap="round" stroke-linejoin="round"/>
<path id="Path_3" fill-rule="evenodd" clip-rule="evenodd" d="M20 19H4C2.895 19 2 18.105 2 17V7C2 5.895 2.895 5 4 5H20C21.105 5 22 5.895 22 7V17C22 18.105 21.105 19 20 19Z" stroke="white" stroke-width="1.5" stroke-linecap="round" stroke-linejoin="round"/>
<path id="Path_4" fill-rule="evenodd" clip-rule="evenodd" d="M13.343 14.625H11.132C10.645 14.625 10.25 14.23 10.25 13.743V12.04H13.343C14.051 12.04 14.625 12.614 14.625 13.322V13.342C14.625 14.051 14.051 14.625 13.343 14.625Z" stroke="white" stroke-width="1.5" stroke-linecap="round" stroke-linejoin="round"/>
<path id="Path_5" fill-rule="evenodd" clip-rule="evenodd" d="M13.032 12.04H10.25V10.27C10.25 9.775 10.651 9.375 11.145 9.375H13.031C13.75 9.375 14.333 9.958 14.333 10.677V10.738C14.334 11.457 13.751 12.04 13.032 12.04V12.04Z" stroke="white" stroke-width="1.5" stroke-linecap="round" stroke-linejoin="round"/>
<path id="Path_6" d="M12 8.49994V9.37994" stroke="white" stroke-width="1.5" stroke-linecap="round" stroke-linejoin="round"/>
<path id="Path_7" d="M12 15.5001V14.6201" stroke="white" stroke-width="1.5" stroke-linecap="round" stroke-linejoin="round"/>
<path id="Path_8" d="M11.9999 9.37988H9.37988" stroke="white" stroke-width="1.5" stroke-linecap="round" stroke-linejoin="round"/>
<path id="Path_9" d="M11.9999 14.6201H9.37988" stroke="white" stroke-width="1.5" stroke-linecap="round" stroke-linejoin="round"/>
</g>
</g>
</svg>
