<svg width="405" height="224" viewBox="0 0 405 224" fill="none" xmlns="http://www.w3.org/2000/svg">
<path d="M35.2188 -49.1738L70.0092 -14.3834L35.2188 20.4071L0.428303 -14.3834L35.2188 -49.1738Z" fill="black" fill-opacity="0.09"/>
<path d="M370.211 -49.1738L405.001 -14.3834L370.211 20.4071L335.42 -14.3834L370.211 -49.1738Z" fill="black" fill-opacity="0.09"/>
<path d="M202.699 -18.4238L237.49 16.3666L202.699 51.1571L167.909 16.3666L202.699 -18.4238Z" fill="black" fill-opacity="0.09"/>
<path d="M202.699 51.0742L237.49 85.8647L202.699 120.655L167.909 85.8647L202.699 51.0742Z" fill="black" fill-opacity="0.09"/>
<path fill-rule="evenodd" clip-rule="evenodd" d="M339.248 51.9155L304.458 17.125L270.437 51.1459L270.365 51.0737L235.574 85.8642L270.365 120.655L304.191 86.8285L338.017 120.655L372.807 85.8642L339.053 52.1103L339.248 51.9155Z" fill="black" fill-opacity="0.09"/>
<path fill-rule="evenodd" clip-rule="evenodd" d="M237.756 154.747L202.966 119.957L168.945 153.978L168.872 153.906L134.082 188.696L168.872 223.487L202.699 189.661L236.525 223.487L271.315 188.696L237.561 154.942L237.756 154.747Z" fill="black" fill-opacity="0.09"/>
<path fill-rule="evenodd" clip-rule="evenodd" d="M136.307 51.9155L101.516 17.125L67.4955 51.1459L67.4233 51.0737L32.6328 85.8642L67.4233 120.655L101.249 86.8285L135.076 120.655L169.866 85.8642L136.112 52.1103L136.307 51.9155Z" fill="black" fill-opacity="0.09"/>
</svg>
