<svg width="25" height="24" viewBox="0 0 25 24" fill="none" xmlns="http://www.w3.org/2000/svg">
<g id="Flag Pack/Variant260" clip-path="url(#clip0_1_6486)">
<g id="Group">
<path id="Vector" d="M24.5781 9.38008H0.578125V4.55248C0.578125 4.32397 0.763422 4.13867 0.991937 4.13867H24.1643C24.3928 4.13867 24.5781 4.32397 24.5781 4.55248L24.5781 9.38008Z" fill="#82AFFF"/>
<path id="Vector_2" d="M24.1643 19.8625H0.991937C0.763422 19.8625 0.578125 19.6772 0.578125 19.4486V14.6211H24.5781V19.4486C24.5781 19.6772 24.3928 19.8625 24.1643 19.8625Z" fill="#82AFFF"/>
</g>
<path id="Vector_3" d="M24.5781 9.37891H0.578125V14.62H24.5781V9.37891Z" fill="#F5F5F5"/>
<path id="Vector_4" d="M14.6458 11.8972H13.156C13.1838 11.8761 13.2057 11.8553 13.2256 11.8357C13.262 11.8002 13.2909 11.7719 13.3677 11.7404C13.4448 11.708 13.4852 11.7076 13.5364 11.7068C13.5979 11.7064 13.6677 11.7052 13.7816 11.6583C13.8954 11.611 13.9451 11.5625 13.989 11.5197C14.0254 11.4841 14.0543 11.4559 14.1312 11.4239C14.2077 11.392 14.248 11.3916 14.2989 11.3912C14.3603 11.3903 14.43 11.3896 14.5439 11.3423L14.4643 11.1515C14.3878 11.1834 14.3475 11.1839 14.2967 11.1842C14.2352 11.1851 14.1656 11.1858 14.0518 11.2327C13.9381 11.28 13.8883 11.3286 13.8445 11.3714C13.8081 11.4069 13.7792 11.4352 13.7024 11.4667C13.6253 11.4991 13.5849 11.4995 13.5337 11.5003C13.4721 11.5007 13.4024 11.5019 13.2884 11.5492C13.1747 11.596 13.125 11.645 13.0811 11.6878C13.0453 11.7226 13.0157 11.7505 12.9421 11.7816L14.113 10.6108L13.9667 10.4645L12.9127 11.5184C12.9174 11.4839 12.9186 11.4533 12.9189 11.4255C12.9195 11.3742 12.9199 11.3341 12.9519 11.257C12.9838 11.1798 13.0121 11.1511 13.0477 11.1148C13.0909 11.0707 13.1396 11.0206 13.1869 10.9067C13.2339 10.7927 13.2348 10.7232 13.2354 10.6618C13.236 10.6109 13.2364 10.5705 13.2681 10.4937C13.3 10.4169 13.3281 10.3882 13.3637 10.3519C13.4067 10.3078 13.4554 10.2581 13.5025 10.1445L13.3114 10.0654C13.2795 10.1422 13.2514 10.1708 13.2158 10.2072C13.1728 10.2513 13.1241 10.301 13.077 10.4145C13.0299 10.5285 13.0291 10.598 13.0285 10.6594C13.0279 10.7103 13.0274 10.7508 12.9957 10.8275C12.9638 10.9047 12.9356 10.9334 12.8999 10.9697C12.8567 11.0138 12.808 11.0639 12.7608 11.1778C12.7137 11.2918 12.7129 11.3617 12.7121 11.4231C12.7117 11.4729 12.7103 11.5132 12.6804 11.5872V9.93164H12.4735V11.4215C12.4524 11.3939 12.4317 11.3719 12.4123 11.352C12.3766 11.3157 12.3484 11.2866 12.3165 11.2098C12.2846 11.1327 12.2839 11.0923 12.2833 11.0409C12.2827 10.9794 12.2819 10.9095 12.2347 10.7956C12.1876 10.6821 12.1389 10.6324 12.0958 10.5883C12.0603 10.5519 12.0322 10.5232 12.0003 10.4464C11.9686 10.3696 11.9682 10.3292 11.9675 10.2783C11.9669 10.2169 11.9661 10.1474 11.919 10.0338L11.7279 10.113C11.7596 10.1898 11.76 10.2298 11.7606 10.2807C11.7612 10.3421 11.762 10.4116 11.8092 10.5255C11.8562 10.6391 11.905 10.6888 11.948 10.7329C11.9836 10.7692 12.0116 10.7979 12.0436 10.8747C12.0755 10.9519 12.0761 10.9923 12.0767 11.0437C12.0773 11.1051 12.0781 11.175 12.1254 11.2889C12.1724 11.4029 12.2212 11.4526 12.2642 11.4967C12.2993 11.5323 12.327 11.562 12.3582 11.6355L11.1871 10.4646L11.0408 10.6109L12.21 11.78C12.1459 11.7509 12.115 11.7241 12.0814 11.6915C12.0372 11.6482 11.9872 11.5994 11.8729 11.5521C11.7589 11.5052 11.6892 11.504 11.6276 11.5032C11.5762 11.5027 11.5359 11.502 11.4581 11.4697C11.3802 11.4377 11.3512 11.4095 11.3142 11.3735C11.27 11.3307 11.2198 11.2818 11.1053 11.2341C10.9909 11.1868 10.921 11.186 10.8592 11.1852C10.8077 11.1844 10.7671 11.1836 10.6893 11.1513L10.6101 11.3428C10.7245 11.3901 10.7944 11.3909 10.8562 11.3917C10.9077 11.3925 10.9483 11.3933 11.0261 11.4256C11.1041 11.4576 11.1332 11.4858 11.1702 11.5218C11.2144 11.565 11.2645 11.6135 11.3788 11.6608C11.4932 11.7085 11.5632 11.7093 11.6247 11.7101C11.6761 11.711 11.7164 11.7113 11.7939 11.7436C11.8713 11.7756 11.9002 11.8038 11.9367 11.8394C11.9555 11.8579 11.9765 11.8774 12.002 11.8972H10.5078V12.1042H12.1603C12.095 12.129 12.0542 12.1321 12.0074 12.1328C11.9458 12.1333 11.876 12.1344 11.7619 12.1814C11.6478 12.2287 11.5976 12.2775 11.5534 12.3204C11.5166 12.3563 11.4877 12.3846 11.4103 12.4165C11.3325 12.4489 11.2919 12.4497 11.2404 12.4505C11.1786 12.4513 11.1087 12.4521 10.9943 12.4994C10.8798 12.547 10.8297 12.5955 10.7854 12.6388C10.7484 12.6747 10.7194 12.703 10.6415 12.7349L10.7207 12.9264C10.8351 12.8788 10.8852 12.8303 10.9294 12.787C10.9664 12.7511 10.9955 12.7228 11.0735 12.6909C11.1513 12.6585 11.1919 12.6577 11.2434 12.6569C11.3052 12.6561 11.3751 12.6554 11.4897 12.6076C11.6037 12.5603 11.6536 12.5118 11.6978 12.4686C11.7343 12.433 11.7635 12.4048 11.8411 12.3728C11.9182 12.3404 11.9589 12.3401 12.01 12.3393C12.0362 12.3391 12.0657 12.3374 12.0976 12.3335L11.0406 13.3903L11.1869 13.5366L12.3555 12.3682C12.3267 12.432 12.3002 12.4628 12.2674 12.4965C12.2244 12.5406 12.1758 12.5906 12.1284 12.7046C12.0811 12.8185 12.0801 12.8889 12.0795 12.9502C12.0787 13.0016 12.0784 13.0419 12.0462 13.1196C12.014 13.1976 11.9855 13.2266 11.9498 13.2634C11.9066 13.3075 11.8579 13.358 11.8104 13.4723C11.7629 13.5867 11.762 13.6566 11.7613 13.7184C11.7605 13.7698 11.7599 13.8105 11.7278 13.8881L11.9189 13.9673C11.9664 13.8529 11.9672 13.783 11.968 13.7212C11.9688 13.6699 11.9694 13.6291 12.0015 13.5515C12.0336 13.4735 12.0621 13.4444 12.0979 13.4076C12.1411 13.3636 12.1898 13.3131 12.2373 13.1987C12.2846 13.0848 12.2856 13.0144 12.2862 12.9531C12.287 12.9017 12.2873 12.8614 12.3195 12.7837C12.3514 12.7062 12.3797 12.6774 12.4155 12.6407C12.4339 12.6218 12.4534 12.6008 12.4733 12.5753V14.0696H12.6802V12.4171C12.7048 12.4823 12.708 12.523 12.7087 12.57C12.7093 12.6314 12.7103 12.7013 12.7576 12.8153C12.8046 12.9297 12.8535 12.9798 12.8966 13.0238C12.9323 13.0606 12.9606 13.0896 12.9927 13.1672C13.0249 13.2448 13.0255 13.2856 13.0263 13.3369C13.0271 13.3987 13.0279 13.4686 13.0753 13.583C13.1228 13.6974 13.1715 13.7479 13.2147 13.7919C13.2505 13.8287 13.279 13.8578 13.3111 13.9358L13.5022 13.8566C13.4547 13.7422 13.4061 13.6917 13.3628 13.6477C13.3271 13.6109 13.2986 13.5818 13.2664 13.5038C13.2343 13.4263 13.2337 13.3854 13.2329 13.3341C13.2321 13.2723 13.2313 13.2024 13.1839 13.0881C13.1366 12.9737 13.0879 12.9236 13.0448 12.8796C13.0091 12.8428 12.9808 12.8137 12.9487 12.7361C12.9166 12.659 12.9162 12.6186 12.9153 12.5672C12.915 12.5411 12.9133 12.5115 12.9094 12.4796L13.9665 13.5366L14.1128 13.3904L13.059 12.3367C13.0932 12.3412 13.1239 12.3426 13.1515 12.343C13.2026 12.3434 13.2428 12.3438 13.32 12.3757C13.3971 12.408 13.4261 12.4359 13.4626 12.4718C13.5067 12.5147 13.5566 12.5635 13.6706 12.6109C13.7843 12.6577 13.854 12.6585 13.9154 12.659C13.9663 12.6598 14.0066 12.6601 14.0833 12.6921C14.1601 12.7236 14.1888 12.7519 14.2252 12.7875C14.2692 12.8303 14.319 12.8792 14.4327 12.9265L14.5119 12.735C14.4351 12.7035 14.4064 12.6752 14.37 12.6396C14.326 12.5968 14.2762 12.5479 14.1625 12.5006C14.0488 12.4537 13.979 12.4529 13.9176 12.4525C13.8667 12.4516 13.8265 12.4513 13.7497 12.4193C13.6726 12.3874 13.6437 12.3595 13.6071 12.3235C13.563 12.2807 13.5132 12.2318 13.3992 12.1849C13.2852 12.1372 13.2155 12.1364 13.1539 12.136C13.1037 12.1352 13.0631 12.1342 12.9887 12.1041H14.6457V11.8972H14.6458Z" fill="#F09146"/>
<path id="Vector_5" d="M12.5775 13.0339C13.1489 13.0339 13.612 12.5707 13.612 11.9994C13.612 11.428 13.1489 10.9648 12.5775 10.9648C12.0061 10.9648 11.543 11.428 11.543 11.9994C11.543 12.5707 12.0061 13.0339 12.5775 13.0339Z" fill="#FFE15A"/>
</g>
<defs>
<clipPath id="clip0_1_6486">
<rect width="24" height="24" fill="white" transform="translate(0.578125)"/>
</clipPath>
</defs>
</svg>
