<svg width="24" height="24" viewBox="0 0 24 24" fill="none" xmlns="http://www.w3.org/2000/svg">
<g id="Group">
<path id="Path" d="M18.5028 6.95147L16.137 3.79705C15.4998 2.94753 14.31 2.74372 13.4265 3.33276L7.92822 6.99825" stroke="white" stroke-width="1.5" stroke-linecap="round" stroke-linejoin="round"/>
<path id="Path_2" fill-rule="evenodd" clip-rule="evenodd" d="M18.503 11.5H21.004C21.5566 11.5 22.0045 11.9479 22.0045 12.5004V15.5017C22.0045 16.0542 21.5566 16.5021 21.004 16.5021H18.503C17.1217 16.5021 16.002 15.3823 16.002 14.001V14.001C16.002 12.6198 17.1217 11.5 18.503 11.5V11.5Z" stroke="white" stroke-width="1.5" stroke-linecap="round" stroke-linejoin="round"/>
<path id="Path_3" d="M21.0041 11.4999V9.49909C21.0041 8.1178 19.8843 6.99805 18.503 6.99805H5.49762C4.11634 6.99805 2.99658 8.1178 2.99658 9.49909V18.5028C2.99658 19.8841 4.11634 21.0039 5.49762 21.0039H18.503C19.8843 21.0039 21.0041 19.8841 21.0041 18.5028V16.502" stroke="white" stroke-width="1.5" stroke-linecap="round" stroke-linejoin="round"/>
</g>
</svg>
