<svg width="17" height="20" viewBox="0 0 17 20" fill="none" xmlns="http://www.w3.org/2000/svg">
<g id="Group 460">
<path id="Path 5692" d="M13.5781 19H3.57812C3.04769 19 2.53898 18.7893 2.16391 18.4142C1.78884 18.0391 1.57813 17.5304 1.57812 17V10C1.57812 9.46957 1.78884 8.96086 2.16391 8.58579C2.53898 8.21071 3.04769 8 3.57812 8H13.5781C14.1086 8 14.6173 8.21071 14.9923 8.58579C15.3674 8.96086 15.5781 9.46957 15.5781 10V17C15.5781 17.5304 15.3674 18.0391 14.9923 18.4142C14.6173 18.7893 14.1086 19 13.5781 19Z" stroke="black" stroke-width="1.5" stroke-linecap="round" stroke-linejoin="round"/>
<path id="Path 5693" d="M4.57812 8V5C4.57812 3.93913 4.99955 2.92172 5.7497 2.17157C6.49984 1.42143 7.51726 1 8.57812 1V1C9.63899 1 10.6564 1.42143 11.4066 2.17157C12.1567 2.92172 12.5781 3.93913 12.5781 5V8" stroke="black" stroke-width="1.5" stroke-linecap="round" stroke-linejoin="round"/>
</g>
</svg>
